<svg xmlns="http://www.w3.org/2000/svg" width="460.6719055175781" height="233.93157958984375" viewBox="-329.09100341796875 -24.844335556030273 460.6719055175781 233.93157958984375"><title>Neo4j Graph Visualization</title><desc>Created using Neo4j (http://www.neo4j.com/)</desc><g class="layer relationships"><g class="relationship" transform="translate(-78.99262280442602 180.08727212485724) rotate(290.3412070209472)"><path class="b-outline" fill="#A5ABB6" stroke="none" d="M 25 0.5 L 40.44854329430015 0.5 L 40.44854329430015 -0.5 L 25 -0.5 Z M 112.69073079430015 0.5 L 128.1392740886003 0.5 L 128.1392740886003 3.5 L 135.1392740886003 0 L 128.1392740886003 -3.5 L 128.1392740886003 -0.5 L 112.69073079430015 -0.5 Z"/><text text-anchor="middle" pointer-events="none" font-size="8px" fill="#000000" x="76.56963704430015" y="3" font-family="Helvetica Neue, Helvetica, Arial, sans-serif">SPONSORED_BY</text></g><g class="relationship" transform="translate(-171.55365670724228 7.655664182872599) rotate(421.7731619084596)"><path class="b-outline" fill="#A5ABB6" stroke="none" d="M 32.5 0.5 L 57.91078383103063 0.5 L 57.91078383103063 -0.5 L 32.5 -0.5 Z M 138.29359633103064 0.5 L 163.70438016206126 0.5 L 163.70438016206126 3.5 L 170.70438016206126 0 L 163.70438016206126 -3.5 L 163.70438016206126 -0.5 L 138.29359633103064 -0.5 Z"/><text text-anchor="middle" pointer-events="none" font-size="8px" fill="#000000" x="98.10219008103063" y="3" font-family="Helvetica Neue, Helvetica, Arial, sans-serif">INVESTIGATOR_OF</text></g><g class="relationship" transform="translate(-171.55365670724228 7.655664182872599) rotate(490.8696572797535)"><path class="b-outline" fill="#A5ABB6" stroke="none" d="M 32.5 0.5 L 48.342059623430785 0.5 L 48.342059623430785 -0.5 L 32.5 -0.5 Z M 148.59596587343077 0.5 L 164.43802549686157 0.5 L 164.43802549686157 3.5 L 171.43802549686157 0 L 164.43802549686157 -3.5 L 164.43802549686157 -0.5 L 148.59596587343077 -0.5 Z"/><text text-anchor="middle" pointer-events="none" font-size="8px" fill="#000000" x="98.46901274843079" y="3" transform="rotate(180 98.46901274843079 0)" font-family="Helvetica Neue, Helvetica, Arial, sans-serif">RESPONSABILITY_TYPE</text></g><g class="relationship" transform="translate(-78.99262280442602 180.08727212485724) rotate(352.85949786161086)"><path class="b-outline" fill="#A5ABB6" stroke="none" d="M 25 0.5 L 51.066692302299145 0.5 L 51.066692302299145 -0.5 L 25 -0.5 Z M 124.92606730229915 0.5 L 150.9927596045983 0.5 L 150.9927596045983 3.5 L 157.9927596045983 0 L 150.9927596045983 -3.5 L 150.9927596045983 -0.5 L 124.92606730229915 -0.5 Z"/><text text-anchor="middle" pointer-events="none" font-size="8px" fill="#000000" x="87.99637980229915" y="3" font-family="Helvetica Neue, Helvetica, Arial, sans-serif">ADJUDICATED_IN</text></g><g class="relationship" transform="translate(-78.99262280442602 180.08727212485724) rotate(324.7145440922276)"><path class="b-outline" fill="#A5ABB6" stroke="none" d="M 25 0.5 L 59.315111858260536 0.5 L 59.315111858260536 -0.5 L 25 -0.5 Z M 105.92839310826054 0.5 L 140.24350496652107 0.5 L 140.24350496652107 3.5 L 147.24350496652107 0 L 140.24350496652107 -3.5 L 140.24350496652107 -0.5 L 105.92839310826054 -0.5 Z"/><text text-anchor="middle" pointer-events="none" font-size="8px" fill="#000000" x="82.62175248326054" y="3" font-family="Helvetica Neue, Helvetica, Arial, sans-serif">APPLY_TO</text></g></g><g class="layer nodes"><g class="node" aria-label="graph-node-16" transform="translate(-78.99262280442602,180.08727212485724)"><circle class="b-outline" cx="0" cy="0" r="25" fill="#4C8EDA" stroke="#2870c2" stroke-width="2px"/><text class="caption" text-anchor="middle" pointer-events="none" x="0" y="5" font-size="10px" fill="#FFFFFF" font-family="Helvetica Neue, Helvetica, Arial, sans-serif"> Project</text></g><g class="node" aria-label="graph-node-17" transform="translate(61.60703720453765,80.59073646398213)"><circle class="b-outline" cx="0" cy="0" r="25" fill="#DA7194" stroke="#cc3c6c" stroke-width="2px"/><text class="caption" text-anchor="middle" pointer-events="none" x="0" y="5" font-size="10px" fill="#FFFFFF" font-family="Helvetica Neue, Helvetica, Arial, sans-serif"> Area</text></g><g class="node" aria-label="graph-node-15" transform="translate(-23.326595355707497,29.934415030154014)"><circle class="b-outline" cx="0" cy="0" r="25" fill="#FFC454" stroke="#d7a013" stroke-width="2px"/><text class="caption" text-anchor="middle" pointer-events="none" x="0" y="5" font-size="10px" fill="#2A2C34" font-family="Helvetica Neue, Helvetica, Arial, sans-serif"> University</text></g><g class="node" aria-label="graph-node-21" transform="translate(102.58090289389122,157.34073759344292)"><circle class="b-outline" cx="0" cy="0" r="25" fill="#A5ABB6" stroke="#9AA1AC" stroke-width="2px"/><text class="caption" text-anchor="middle" pointer-events="none" x="0" y="5" font-size="10px" fill="#FFFFFF" font-family="Helvetica Neue, Helvetica, Arial, sans-serif"> YEAR</text></g><g class="node" aria-label="graph-node-19" transform="translate(-171.55365670724228,7.655664182872599)"><circle class="b-outline" cx="0" cy="0" r="32.5" fill="#ECB5C9" stroke="#da7298" stroke-width="2px"/><text class="caption" text-anchor="middle" pointer-events="none" x="0" y="5" font-size="10px" fill="#2A2C34" font-family="Helvetica Neue, Helvetica, Arial, sans-serif"> Researcher</text></g><g class="node" aria-label="graph-node-20" transform="translate(-300.0910001074543,156.20211891243395)"><circle class="b-outline" cx="0" cy="0" r="25" fill="#569480" stroke="#447666" stroke-width="2px"/><text class="caption" text-anchor="middle" pointer-events="none" x="0" y="5" font-size="10px" fill="#FFFFFF" font-family="Helvetica Neue, Helvetica, Arial, sans-serif"> Grade</text></g></g></svg>